<svg width="20" height="20" viewBox="0 0 20 20" fill="none" xmlns="http://www.w3.org/2000/svg">
<path d="M18.7673 8.37915C18.7868 8.27461 18.7846 8.16721 18.7611 8.06351C18.7375 7.95981 18.693 7.86199 18.6302 7.776C18.5675 7.69001 18.4878 7.61766 18.396 7.56337C18.3043 7.50908 18.2024 7.47398 18.0966 7.46022L13.3179 6.7919L11.1381 2.44785C11.0722 2.29862 10.9525 2.17941 10.8028 2.11369C10.7042 2.05684 10.5951 2.02035 10.482 2.0064C10.369 1.99246 10.2543 2.00134 10.1447 2.03253C10.0352 2.06371 9.93309 2.11656 9.84449 2.18791C9.75589 2.25927 9.68262 2.34767 9.62905 2.44785L7.53313 6.7919L2.75441 7.46022C2.65505 7.44732 2.55409 7.46428 2.46446 7.50893C2.37484 7.55358 2.30065 7.62389 2.25139 7.71084C2.17194 7.78628 2.1087 7.87701 2.06549 7.97753C2.02228 8.07805 2 8.18626 2 8.29561C2 8.40496 2.02228 8.51318 2.06549 8.6137C2.1087 8.71421 2.17194 8.80494 2.25139 8.88039L5.68871 12.222L4.85034 16.9837C4.83705 17.1551 4.86583 17.3271 4.93417 17.485C4.98775 17.5851 5.06101 17.6735 5.14961 17.7449C5.23821 17.8162 5.34032 17.8691 5.44985 17.9003C5.55939 17.9315 5.67411 17.9403 5.78716 17.9264C5.90022 17.9125 6.00929 17.876 6.10789 17.8191L10.3836 15.5635L14.6593 17.8191C14.7849 17.8949 14.9332 17.9245 15.0785 17.9026H15.2461C15.4666 17.8549 15.6599 17.7237 15.785 17.5366C15.9102 17.3495 15.9574 17.1213 15.9168 16.9002L15.0785 12.1384L18.5158 8.79685C18.5928 8.75771 18.6572 8.6978 18.7017 8.62394C18.7461 8.55009 18.7689 8.46527 18.7673 8.37915V8.37915Z" fill="#F5CA52"/>
</svg>
